<?xml version="1.0" encoding="UTF-8" standalone="no" ?>
<!DOCTYPE svg PUBLIC "-//W3C//DTD SVG 1.1//EN" "http://www.w3.org/Graphics/SVG/1.1/DTD/svg11.dtd">
<svg xmlns="http://www.w3.org/2000/svg" xmlns:xlink="http://www.w3.org/1999/xlink" version="1.1" width="1080" height="1080" viewBox="0 0 1080 1080" xml:space="preserve">
<desc>Created with Fabric.js 5.2.4</desc>
<defs>
</defs>
<g transform="matrix(1 0 0 1 540 540)" id="bdb3e99f-7633-4655-b8e5-e94a33e41a4a"  >
<rect style="stroke: none; stroke-width: 1; stroke-dasharray: none; stroke-linecap: butt; stroke-dashoffset: 0; stroke-linejoin: miter; stroke-miterlimit: 4; fill: rgb(255,255,255); fill-rule: nonzero; opacity: 1; visibility: hidden;" vector-effect="non-scaling-stroke"  x="-540" y="-540" rx="0" ry="0" width="1080" height="1080" />
</g>
<g transform="matrix(1 0 0 1 540 540)" id="9c744ae0-c6ee-4594-99fb-f302c2d07add"  >
</g>
<g transform="matrix(67.5 0 0 67.5 540 540)"  >
<path style="stroke: none; stroke-width: 1; stroke-dasharray: none; stroke-linecap: butt; stroke-dashoffset: 0; stroke-linejoin: miter; stroke-miterlimit: 4; fill: rgb(243,112,33); fill-rule: nonzero; opacity: 1;"  transform=" translate(-8, -8)" d="M 2 16 C 1.45 16 0.979167 15.8042 0.5875 15.4125 C 0.195833 15.0208 0 14.55 0 14 L 0 11 L 2 11 L 2 14 L 14 14 L 14 11 L 16 11 L 16 14 C 16 14.55 15.8042 15.0208 15.4125 15.4125 C 15.0208 15.8042 14.55 16 14 16 L 2 16 Z M 8 12 L 3 7 L 4.4 5.55 L 7 8.15 L 7 0 L 9 0 L 9 8.15 L 11.6 5.55 L 13 7 L 8 12 Z" stroke-linecap="round" />
</g>
</svg>