<svg width="85" height="36" viewBox="0 0 85 36" fill="none" xmlns="http://www.w3.org/2000/svg">
<path d="M36.4962 6.01075H41.2291V6.00734C41.386 6.0051 41.5357 5.9412 41.6458 5.82945C41.756 5.71771 41.8177 5.5671 41.8177 5.41019V0.597151C41.8177 0.440244 41.756 0.289634 41.6458 0.177889C41.5357 0.0661429 41.386 0.00224153 41.2291 0H36.4962C36.3395 0.0024634 36.19 0.0664636 36.08 0.178185C35.9701 0.289907 35.9084 0.44039 35.9084 0.597151V5.4136C35.9084 5.57037 35.9701 5.72085 36.08 5.83257C36.19 5.94429 36.3395 6.00829 36.4962 6.01075Z" fill="white"/>
<path d="M46.2493 34.8165V6.54989C46.2481 6.40817 46.3033 6.2718 46.4026 6.17071C46.5019 6.06963 46.6373 6.01209 46.779 6.01074H51.6279C51.6982 6.0113 51.7676 6.02569 51.8323 6.05309C51.897 6.08048 51.9556 6.12035 52.0049 6.17041C52.0542 6.22048 52.0931 6.27976 52.1194 6.34487C52.1458 6.40998 52.1591 6.47964 52.1585 6.54989V34.8165C52.1591 34.8867 52.1458 34.9564 52.1194 35.0215C52.0931 35.0866 52.0542 35.1459 52.0049 35.1959C51.9556 35.246 51.897 35.2859 51.8323 35.3133C51.7676 35.3407 51.6982 35.3551 51.6279 35.3556H46.779C46.6373 35.3543 46.5019 35.2967 46.4026 35.1956C46.3033 35.0946 46.2481 34.9582 46.2493 34.8165Z" fill="white"/>
<path d="M25.7208 35.1958C25.8201 35.2969 25.9555 35.3544 26.0972 35.3558H30.9478C31.0181 35.3552 31.0875 35.3408 31.1522 35.3134C31.2169 35.286 31.2755 35.2462 31.3248 35.1961C31.3741 35.146 31.413 35.0868 31.4393 35.0217C31.4657 34.9565 31.479 34.8869 31.4784 34.8166V19.3223C31.4784 16.8304 30.9734 14.9417 29.9813 13.7073C28.9636 12.4414 27.3615 11.7999 25.2211 11.7999C24.3224 11.797 23.4259 11.8876 22.5459 12.0703C21.7634 12.2326 20.9925 12.4466 20.2383 12.711C19.597 12.9372 18.9683 13.1974 18.3547 13.4907C18.011 13.6562 17.7047 13.8106 17.4394 13.9505C16.9855 13.3047 16.3761 12.7839 15.6676 12.4363C14.8162 12.0148 13.7413 11.8016 12.4711 11.8016C11.4562 11.7996 10.445 11.9234 9.4606 12.1701C8.59356 12.3841 7.73916 12.6464 6.90138 12.9558C6.2266 13.2168 5.57485 13.5069 4.95467 13.8199L4.57249 12.7792C4.53571 12.6766 4.46824 12.5879 4.37926 12.525C4.29028 12.4621 4.1841 12.4282 4.07515 12.4277H0.530629C0.460387 12.4283 0.390943 12.4427 0.326262 12.4701C0.261581 12.4975 0.20293 12.5373 0.153658 12.5874C0.104386 12.6375 0.0654572 12.6967 0.0390954 12.7619C0.0127336 12.827 -0.000545231 12.8966 1.71435e-05 12.9669V34.8166C-0.000545231 34.8869 0.0127336 34.9565 0.0390954 35.0217C0.0654572 35.0868 0.104386 35.146 0.153658 35.1961C0.20293 35.2462 0.261581 35.286 0.326262 35.3134C0.390943 35.3408 0.460387 35.3552 0.530629 35.3558H5.38291C5.52462 35.3544 5.66 35.2969 5.75933 35.1958C5.85866 35.0947 5.91381 34.9584 5.91267 34.8166V18.0316C6.24622 17.9198 6.60792 17.814 6.98754 17.7176C7.43967 17.6093 7.95919 17.5035 8.53075 17.4029C9.12723 17.3002 9.73147 17.2494 10.3367 17.251C10.7802 17.2387 11.2231 17.293 11.6504 17.4122C11.9146 17.4887 12.1498 17.6423 12.3261 17.8533C12.5162 18.1055 12.6419 18.4004 12.692 18.7123C12.7815 19.2283 12.8223 19.7515 12.814 20.2752V34.8166C12.8135 34.8869 12.8267 34.9565 12.8531 35.0217C12.8795 35.0868 12.9184 35.146 12.9677 35.1961C13.0169 35.2462 13.0756 35.286 13.1403 35.3134C13.205 35.3408 13.2744 35.3552 13.3446 35.3558H18.1927C18.2629 35.3552 18.3323 35.3408 18.397 35.3134C18.4617 35.286 18.5204 35.2462 18.5696 35.1961C18.6189 35.146 18.6578 35.0868 18.6842 35.0217C18.7106 34.9565 18.7238 34.8869 18.7233 34.8166V19.7514C18.7233 19.498 18.7164 19.1738 18.7028 18.7592C18.6943 18.505 18.6798 18.2568 18.6601 18.0171L19.1345 17.8635C19.4637 17.7586 19.8365 17.6571 20.2486 17.5641C20.6606 17.4711 21.1025 17.3943 21.5623 17.3346C22.0354 17.2758 22.5119 17.2473 22.9886 17.2493C23.5832 17.2493 24.061 17.3039 24.4082 17.4122C24.6776 17.4856 24.9184 17.6387 25.0991 17.8516C25.2874 18.1015 25.4094 18.3949 25.454 18.7046C25.5371 19.2239 25.5751 19.7494 25.5675 20.2752V34.8166C25.5663 34.9584 25.6215 35.0947 25.7208 35.1958Z" fill="white"/>
<path d="M35.9085 18.5664V34.8157C35.9073 34.9574 35.9625 35.0938 36.0618 35.1949C36.1611 35.296 36.2965 35.3535 36.4382 35.3548H41.2888C41.359 35.3543 41.4285 35.3399 41.4932 35.3125C41.5579 35.2851 41.6165 35.2452 41.6658 35.1952C41.715 35.1451 41.754 35.0858 41.7803 35.0207C41.8067 34.9556 41.82 34.8859 41.8194 34.8157V18.5664C41.8206 18.4244 41.7653 18.2878 41.6658 18.1866C41.5663 18.0853 41.4307 18.0277 41.2888 18.0264H36.4382C36.368 18.027 36.2986 18.0415 36.2339 18.069C36.1693 18.0965 36.1107 18.1365 36.0615 18.1866C36.0123 18.2368 35.9735 18.2961 35.9472 18.3613C35.921 18.4264 35.9078 18.4961 35.9085 18.5664Z" fill="white"/>
<path d="M56.5903 6.54989V34.8165C56.5898 34.8867 56.6031 34.9564 56.6294 35.0215C56.6558 35.0866 56.6947 35.1459 56.744 35.1959C56.7933 35.246 56.8519 35.2859 56.9166 35.3133C56.9813 35.3407 57.0507 35.3551 57.121 35.3556H61.969C62.0392 35.3551 62.1087 35.3407 62.1733 35.3133C62.238 35.2859 62.2967 35.246 62.3459 35.1959C62.3952 35.1459 62.4341 35.0866 62.4605 35.0215C62.4869 34.9564 62.5002 34.8867 62.4996 34.8165V6.54989C62.5002 6.47964 62.4869 6.40998 62.4605 6.34487C62.4341 6.27976 62.3952 6.22048 62.3459 6.17041C62.2967 6.12035 62.238 6.08048 62.1733 6.05309C62.1087 6.02569 62.0392 6.0113 61.969 6.01074H57.121C57.0507 6.0113 56.9813 6.02569 56.9166 6.05309C56.8519 6.08048 56.7933 6.12035 56.744 6.17041C56.6947 6.22048 56.6558 6.27976 56.6294 6.34487C56.6031 6.40998 56.5898 6.47964 56.5903 6.54989Z" fill="white"/>
<path d="M74.6603 35.9994C73.6324 36.0032 72.6058 35.9285 71.5892 35.7759C70.6406 35.6292 69.7978 35.462 69.0752 35.2786C68.2773 35.0824 67.491 34.8417 66.7199 34.5577C66.6172 34.5189 66.5289 34.4497 66.4667 34.3593C66.4045 34.2689 66.3714 34.1616 66.3718 34.0519V30.6106C66.3711 30.5303 66.3885 30.451 66.4227 30.3784C66.4568 30.3059 66.507 30.242 66.5693 30.1914C66.6316 30.1409 66.7045 30.1051 66.7826 30.0867C66.8606 30.0683 66.9419 30.0677 67.0202 30.0851C67.602 30.2198 68.2597 30.341 68.9763 30.4502C69.5871 30.5457 70.3182 30.6276 71.1516 30.695C71.9851 30.7624 72.909 30.7974 73.9105 30.7974C74.7731 30.8085 75.6357 30.7683 76.4936 30.6771C77.211 30.5858 77.5812 30.434 77.7655 30.3231C77.8626 30.271 77.9482 30.1999 78.0173 30.114C78.0863 30.0281 78.1373 29.9292 78.1673 29.8232C78.2565 29.4432 78.2964 29.0532 78.2859 28.663C78.2872 28.437 78.272 28.2112 78.2407 27.9874C78.2206 27.8465 78.1677 27.7124 78.0863 27.5958C77.9866 27.4644 77.8566 27.3591 77.7075 27.2887C77.4373 27.1634 77.1497 27.08 76.8544 27.0413L72.3408 26.1891C71.2804 26.0048 70.3634 25.7489 69.6238 25.4298C68.8905 25.1416 68.2397 24.6768 67.7293 24.0766C67.2188 23.4764 66.8645 22.7594 66.6977 21.9894C66.5049 21.2114 66.4068 20.2568 66.4068 19.1538C66.4068 16.6918 67.2369 14.821 68.8731 13.5935C70.4606 12.4034 72.729 11.802 75.6123 11.802C76.5399 11.7974 77.4667 11.8584 78.3857 11.9846C79.2208 12.1048 79.9613 12.2405 80.5875 12.4009C81.2609 12.5563 81.9253 12.7485 82.5777 12.9767C82.6825 13.0148 82.7729 13.0845 82.8365 13.1762C82.9001 13.2678 82.9336 13.377 82.9326 13.4885V17.0254C82.9334 17.103 82.9173 17.1799 82.8853 17.2507C82.8534 17.3215 82.8063 17.3844 82.7475 17.4351C82.6887 17.4858 82.6195 17.5231 82.5448 17.5442C82.47 17.5654 82.3916 17.57 82.3149 17.5577C81.6743 17.4485 80.9978 17.3521 80.3042 17.271C79.7071 17.2037 79.0187 17.1346 78.2697 17.0655C77.5352 16.9981 76.7802 16.9639 76.0261 16.9639C75.3136 16.9559 74.6013 16.9927 73.8934 17.074C73.3739 17.1405 72.9678 17.2506 72.6854 17.3999C72.48 17.4932 72.3111 17.6519 72.2052 17.8511C72.0949 18.1132 72.0436 18.3963 72.055 18.6803C72.0517 18.9414 72.0752 19.2021 72.125 19.4583C72.1592 19.6294 72.2377 19.7886 72.3527 19.9198C72.5102 20.0919 72.7012 20.2298 72.9141 20.3251C73.2742 20.4828 73.6533 20.5932 74.0418 20.6535L78.7115 21.5441C79.5486 21.6963 80.3651 21.9453 81.1445 22.2863C81.8194 22.5866 82.4132 23.043 82.8771 23.6179C83.319 24.1758 83.6449 24.8856 83.836 25.7267C84.0194 26.5303 84.1132 27.519 84.1132 28.6715C84.1238 29.6765 84.0123 30.6791 83.7814 31.6573C83.5554 32.5833 83.0556 33.4199 82.3474 34.0578C81.6478 34.6925 80.6625 35.1813 79.4187 35.5123C78.2108 35.8331 76.6104 35.9952 74.6603 35.9952V35.9994Z" fill="white"/>
</svg>
